<svg width="270" height="58" viewBox="0 0 270 58" fill="none" xmlns="http://www.w3.org/2000/svg">
<g clip-path="url(#clip0_397_370)">
<path d="M0 9.04868V50.2032L58.7166 58V0L0 9.04868ZM37.3789 36.3716L9.18803 40.6578V12.811L37.3789 17.1585V36.3716Z" fill="white"/>
<path d="M74.9162 47.7403H79.648V57.7687H81.5558V47.7403H86.2807V46.6177H74.9093V47.7403H74.9162ZM96.9771 46.6177L90.9643 57.7619H92.8997L94.5389 54.5846H100.82L102.418 57.7619H104.54L98.8023 46.6177H96.9771ZM95.1037 53.4756L97.4799 48.822C97.5832 48.6315 97.6245 48.5431 97.7485 48.2369C97.8932 48.5975 97.9207 48.6452 98.0034 48.822L100.276 53.4756H95.1037ZM112.33 57.7619H114.244V46.6177H112.33V57.7619ZM130.306 46.9511C129.445 46.6517 128.77 46.6041 127.847 46.6041H123.605V57.7687H125.533V53.0334H126.311C127.53 53.0334 129.273 52.9994 130.644 52.3463C131.966 51.734 132.662 50.6726 132.662 49.6657C132.662 48.7472 131.994 47.5362 130.306 46.9511ZM129.342 51.4346C128.371 51.9108 127.048 51.8564 126.525 51.8428L125.54 51.8564V47.7403H127.558C129.053 47.7403 130.589 48.2029 130.589 49.6997C130.589 50.4345 130.079 51.0808 129.349 51.4346H129.342ZM142.594 52.4551H148.138V51.3189H142.594V47.7199H148.958V46.5973H140.651V57.7619H148.958L149.86 56.6257H142.594V52.4551ZM157.56 46.6177V57.7619H159.475V46.6177H157.56Z" fill="white"/>
<path d="M90.124 34.7456C84.8343 34.732 81.852 31.7044 81.8451 27.7992C81.852 24.0981 84.6208 20.9889 89.6281 20.9821C92.3211 20.9821 94.167 22.0502 94.9935 22.5265L95.4412 22.7782V17.3558L95.2139 17.2946C93.616 16.8727 91.5773 16.4101 88.9049 16.4101C79.7444 16.4305 74.93 21.9277 74.9162 28.0373C74.93 34.3102 80.0199 39.1815 88.4778 39.1883C91.0745 39.1883 92.576 38.8141 93.43 38.6032L93.5471 38.5692L93.6022 38.4739L96.9151 33.31L96.0886 33.623C94.2083 34.317 92.1627 34.732 90.1171 34.732L90.124 34.7456ZM269.663 38.1814L261.762 27.3229L269.573 16.9544H262.107L258.167 22.4448L254.289 16.9544H246.796L254.53 27.4182L246.169 38.6508H253.504L258.071 32.3507L262.472 38.6576H270.007L269.669 38.1882L269.663 38.1814ZM204.892 21.7236H211.552V38.644H218.212V21.71H224.817V16.9408H204.892V21.7168V21.7236ZM234.639 33.8815V29.8538H242.395V25.1526H234.639V21.6896H243.683V16.9544H227.972V38.6576H242.636L242.725 38.5351L246.259 33.8883H234.632L234.639 33.8815ZM170.647 16.9476H160.116V38.6508H166.783V30.2757H169.49C171.28 30.2416 175.351 30.2076 177.679 27.2005C178.443 26.1868 178.891 24.8737 178.891 23.547C178.891 19.1179 174.883 16.9544 170.647 16.9476ZM171.356 25.4384C170.626 26.0099 169.676 26.0575 169.069 26.0575H166.783V21.4447H169.09C170.853 21.4719 172.189 22.125 172.196 23.7579C172.196 24.4178 171.914 25.0165 171.356 25.4316V25.4384ZM111.565 16.4101C103.486 16.4237 98.5062 21.4515 98.4993 27.7992C98.5062 34.3102 103.458 39.1883 111.696 39.1951C119.954 39.1747 124.548 33.6638 124.562 27.6767C124.548 21.5944 119.741 16.4169 111.558 16.4101H111.565ZM111.565 34.4122C107.784 34.4054 105.545 31.5479 105.525 27.7788C105.538 23.8736 107.915 21.0773 111.565 21.0705C115.277 21.0773 117.523 23.9008 117.537 27.8672C117.523 30.9628 115.684 34.4122 111.565 34.4122ZM147.401 16.9476L141.478 28.3231L135.616 16.9476H129.066L126.353 38.6508H132.793L134.046 25.588L140.823 38.644H142.043L148.923 25.6357L150.115 38.644H156.692L153.869 16.9476H147.387H147.401ZM195.869 33.7999V33.7795C194.285 34.7728 192.894 35.0381 190.696 35.0381C189.112 35.0381 188.01 34.2353 187.714 33.0515C187.563 32.4596 187.563 31.7997 187.563 30.507V17.0972H181.557V33.1536C181.598 34.5075 181.632 36.324 183.361 37.7527C184.222 38.4807 185.875 39.1815 188.43 39.1815C190.125 39.1815 192.343 38.5079 194.857 36.6097L195.883 35.8409V38.746H201.723V17.0292H195.883V33.7999H195.869Z" fill="white"/>
</g>
<defs>
<clipPath id="clip0_397_370">
<rect width="270" height="58" fill="white"/>
</clipPath>
</defs>
</svg>
