<svg width="114" height="90" viewBox="0 0 114 90" fill="none" xmlns="http://www.w3.org/2000/svg">
<g clip-path="url(#clip0_397_352)">
<path d="M113.923 2.08558L111.9 0.07677L111.597 0L2.19689 0.0191925L0.07731 2.08558L0 2.38627V87.6905L0.07731 87.9208L2.10025 89.9296L2.40305 90.0064H111.668L111.9 89.9296L113.923 87.9208L114 87.6201V2.3095L113.923 2.07919V2.08558ZM109.568 85.6049H4.43244V4.39508H109.568V85.5985V85.6049Z" fill="white"/>
<path d="M76.8332 46.4011L76.9492 46.2859H80.9178L84.7704 50.1116V54.1612H87.4376V49.4271C87.4376 49.2415 87.1799 48.8321 87.051 48.6722C86.7482 48.2819 84.6093 46.3755 84.6093 46.1707C86.2844 45.5694 87.3152 44.2387 87.4376 42.4602C87.6309 39.6965 87.3989 36.197 83.8878 35.826H74.2369V54.1548H76.8332V46.3883V46.4011ZM76.8332 38.4873H83.8169C83.862 38.4873 84.3645 38.788 84.4289 38.8648C84.5256 38.9672 84.7253 39.319 84.7511 39.4534C84.8413 39.882 84.8219 42.3898 84.7188 42.7929C84.6351 43.1127 84.0682 43.7141 83.7396 43.7141H76.8332V38.4873Z" fill="white"/>
<path d="M29.3778 68.4852H33.5332L37.3085 72.3109V76.3605H39.9048V71.3257C39.9048 70.9227 37.3858 68.9075 37.1603 68.2933C38.262 67.9158 39.2348 67.1034 39.66 66.003C40.0015 65.1137 40.0272 62.1133 39.8726 61.1281C39.6536 59.727 38.1654 58.2172 36.7416 58.0253H26.7879V76.3541H29.3842V68.4788L29.3778 68.4852ZM29.3778 60.6035H36.2068C36.806 60.6035 37.2698 61.3904 37.3149 61.9278C37.3665 62.5611 37.3923 64.1989 37.2956 64.7939C37.2634 64.9858 37.1023 65.3057 36.9606 65.4464C36.8962 65.5168 36.4066 65.8303 36.355 65.8303H29.3713V60.6035H29.3778Z" fill="white"/>
<path d="M55.7791 54.1676V35.8388H53.1442L49.1756 42.1979L45.2457 35.8388H42.5785V54.1676H45.2457V40.9888L47.7969 45.0128C47.8613 45.0768 47.9451 45.0768 48.0288 45.0832C48.4669 45.1407 49.8843 45.1407 50.3288 45.0832C50.4125 45.0704 50.4963 45.0832 50.5543 45L53.1119 40.9888V54.1676H55.7791Z" fill="white"/>
<path d="M29.3778 24.1697H33.5332L37.3085 27.9954V32.0451H39.9048V27.0806C39.9048 26.5816 37.4502 24.5792 37.083 24.0162C38.2878 23.6899 39.3315 22.7111 39.7373 21.534C39.995 20.7791 40.0079 17.6571 39.8726 16.8126C39.6407 15.3412 38.0687 13.8826 36.5869 13.7098H26.7815V32.0387H29.3778V24.1634V24.1697ZM29.3778 16.2944H36.0522C36.0522 16.2944 36.471 16.4032 36.529 16.4288C37.0122 16.6335 37.2698 17.1133 37.3149 17.6187C37.3665 18.2265 37.3923 19.9922 37.2763 20.5424C37.1797 21.003 36.6063 21.598 36.1295 21.598H29.3778V16.2944Z" fill="white"/>
<path d="M42.5785 28.3793C42.7073 30.0874 43.9443 31.5653 45.6322 31.9363C46.8821 32.2114 50.696 32.1602 52.0811 32.0515C54.0203 31.8979 55.5279 30.4201 55.7727 28.52C55.573 24.9055 56.0691 20.9646 55.7856 17.3884C55.631 15.4692 54.1105 13.8634 52.1585 13.7162C50.6058 13.5947 47.5134 13.5691 45.9994 13.7418C44.2728 13.9401 42.8362 15.4116 42.6042 17.1133C42.7717 20.7727 42.3079 24.7583 42.5785 28.3793ZM46.5277 16.3136C47.7003 16.1665 50.5736 16.1729 51.759 16.3008C52.3453 16.3648 52.7898 16.6079 53.0475 17.1453C53.1377 20.9454 53.1635 24.8095 53.0346 28.6032C52.822 29.083 52.4548 29.3517 51.9265 29.3965C50.142 29.5628 48.0932 29.275 46.2829 29.3837C45.8384 29.3261 45.4969 29.0063 45.3036 28.6096L45.2521 17.3116C45.426 16.6975 45.9092 16.384 46.5277 16.3072V16.3136Z" fill="white"/>
<path d="M46.7339 76.3669C48.1448 76.4501 51.9845 76.5333 53.1828 76.0982C54.5744 75.5928 55.631 74.2238 55.7663 72.7588C56.0884 69.2337 55.5408 65.2737 55.7791 61.7039C55.6954 59.9126 54.1299 58.1725 52.3066 58.0317C50.2128 57.8654 47.8806 58.1405 45.7611 58.0509C44.086 58.4028 42.7846 59.791 42.5849 61.4864C42.7846 65.1201 42.2886 69.093 42.572 72.6884C42.7524 74.9787 44.5434 76.239 46.7274 76.3605L46.7339 76.3669ZM45.323 61.3968C45.4454 61.0257 45.9157 60.6867 46.2958 60.6227C47.9451 60.3412 50.2708 60.789 51.991 60.6099C52.4935 60.6995 52.8478 61.0001 53.0475 61.4544L53.1055 72.6116C52.9895 73.2706 52.5064 73.6544 51.8492 73.712C50.1226 73.8655 48.177 73.5904 46.4311 73.712C45.819 73.6288 45.265 73.1938 45.2457 72.5412L45.323 61.3968Z" fill="white"/>
<path d="M23.2574 67.7047C21.8078 67.1481 19.83 67.0522 18.3289 66.5276L18.0776 66.5468L17.472 69.0162L21.4342 69.9311C21.2667 71.089 22.0591 73.5265 20.3325 73.7184C18.5415 73.5904 16.525 73.8847 14.7598 73.7184C14.1284 73.6608 13.671 73.245 13.5808 72.618V61.787C13.671 61.0321 14.2701 60.6739 14.9917 60.6099C16.2222 60.5075 18.9731 60.482 20.1715 60.6227C20.4356 60.6547 20.8801 60.8146 21.0734 60.9937C21.1378 61.0513 21.4342 61.5311 21.4342 61.5631V63.2649H24.1014V61.4096C24.1014 59.8358 22.1429 58.1852 20.6289 58.0381C19.0827 57.891 16.0869 57.9166 14.5214 58.0381C12.5178 58.1916 11.0424 59.8294 10.8943 61.787C10.6366 65.2865 11.094 69.093 10.8943 72.6244C10.9973 74.3325 12.2472 75.8871 13.948 76.2582C15.1334 76.5205 19.6818 76.4949 20.9123 76.271C22.5938 75.9703 23.9532 74.4477 24.0949 72.7651C24.1594 72.0358 24.2109 69.1506 24.0627 68.562C23.9596 68.1653 23.6182 67.8519 23.2445 67.7111L23.2574 67.7047Z" fill="white"/>
<path d="M10.9136 50.4955C11.1069 52.7346 12.9043 54.2508 15.1527 54.2444C15.404 54.2444 15.6166 54.1612 15.8357 54.1612C18.7026 54.1548 22.9546 54.9545 23.9596 51.3975C24.2238 50.4635 24.2109 47.7317 24.1207 46.7017C24.0692 46.1196 23.7664 45.7549 23.2188 45.5502L18.0905 44.3155L17.4785 46.8937L21.4342 47.8149C21.2538 49.088 22.1235 51.3271 20.2616 51.5894C18.5157 51.4743 16.5637 51.743 14.8435 51.5894C14.1864 51.5318 13.7161 51.1352 13.5872 50.4891V39.5749C13.7161 38.9288 14.1864 38.5321 14.8435 38.4746C16.5894 38.321 18.5673 38.5897 20.3325 38.4874C20.7126 38.4874 21.4471 39.0631 21.4471 39.4278V41.0208L21.563 41.1359H24.1207V39.2806C24.1207 37.6877 22.1944 36.0307 20.6546 35.9092C19.0118 35.7812 16.0289 35.7684 14.3925 35.9092C12.4598 36.0691 11.0553 37.8028 10.92 39.6581C10.6623 43.1575 11.1197 46.964 10.92 50.4955H10.9136Z" fill="white"/>
<path d="M71.5697 51.5894H61.0427V46.2859H68.9798V43.7141H61.0427V38.4873H71.5697V35.8324H58.3755V54.1676H71.5697V51.5894Z" fill="white"/>
<path d="M29.3778 48.9409H37.3149V54.1676H39.9113V44.6609L35.7816 36.4146C35.4659 35.9539 35.1503 35.8708 34.6155 35.8324C33.9326 35.7812 32.5217 35.7556 31.871 35.8452C31.5296 35.89 31.1946 36.0563 30.9884 36.3314L26.7943 44.6609V54.1676H29.3907V48.9409H29.3778ZM29.4358 45.2495L32.7987 38.5321H33.8811L37.2698 45.3007L37.3085 46.2859H29.3713L29.4293 45.2495H29.4358Z" fill="white"/>
<path d="M92.0955 44.2835C94.4792 45.6717 97.4428 46.5994 99.8265 47.9684C100.709 48.4738 100.728 49.1648 100.638 50.1116C100.561 50.9369 100.22 51.4615 99.3562 51.5702C98.2288 51.711 95.1042 51.7174 93.9703 51.583C93.5129 51.5254 92.7011 51.0712 92.7011 50.5658V49.4655H90.0339V50.6426C90.0339 51.7558 91.1485 53.2208 92.1148 53.7262C93.996 54.705 97.6167 53.8989 99.7556 54.1676C103.821 53.7262 104.549 47.623 101.218 45.7485C98.7377 44.3475 95.7999 43.343 93.2809 41.9612C93.1585 41.878 92.8815 41.6349 92.8171 41.5134C92.6496 41.2127 92.6431 39.7541 92.7333 39.3958C92.8557 38.9224 93.3196 38.5449 93.8028 38.4873C95.5938 38.2826 97.81 38.6089 99.6461 38.5193C100.593 38.788 100.683 39.7669 100.632 40.6049H103.228V39.2039C103.228 37.7452 101.482 36.2034 100.116 35.9284C98.989 35.7044 94.1829 35.6916 93.0812 35.9411C89.3574 36.7792 88.8872 42.409 92.0891 44.2771L92.0955 44.2835Z" fill="white"/>
<path d="M13.5872 24.1697H20.7964C22.072 24.1697 23.6311 22.564 23.9596 21.3996C24.2302 20.4336 24.2302 17.3244 23.921 16.3712C23.5473 15.2132 22.0011 13.7162 20.7191 13.7162H10.9136V32.0451H13.5808V24.1697H13.5872ZM13.5872 16.2944H20.1843C20.8093 16.3712 21.3826 16.819 21.4471 17.4652C21.5051 18.0409 21.5308 20.1265 21.4277 20.6319C21.3311 21.0798 20.7126 21.5979 20.2617 21.5979H13.5872V16.2944Z" fill="white"/>
<path d="M62.5244 76.3669C63.9869 76.4629 67.8202 76.5333 69.07 76.0407C69.9784 75.6824 71.5697 74.0574 71.5697 73.0658V58.0317H68.9734V72.5412C68.9734 73.053 68.1423 73.6672 67.6398 73.7184C65.939 73.8847 63.9547 73.5904 62.2216 73.712C61.8351 73.6864 61.0362 72.9635 61.0362 72.618V58.0381H58.369V72.618C58.369 74.742 60.5788 76.2454 62.5244 76.3733V76.3669Z" fill="white"/>
<path d="M76.8332 68.4852H83.8878C85.0861 68.4852 86.6065 67.2441 87.0704 66.1885C87.5986 64.973 87.618 61.6527 87.1219 60.4308C86.7353 59.4647 85.2922 58.0317 84.197 58.0317H74.2433V76.3605H76.8397V68.4852H76.8332ZM76.8332 60.6035H83.7396C84.0682 60.6035 84.6351 61.2049 84.7189 61.5247C84.8219 61.9278 84.8413 64.4356 84.7511 64.8642C84.7253 64.9986 84.5256 65.3504 84.4289 65.4528C84.3581 65.5232 83.8556 65.8303 83.8169 65.8303H76.8332V60.6035Z" fill="white"/>
<path d="M61.0427 28.6736C63.8903 25.7435 66.9118 22.9798 69.74 20.037C69.9913 19.7747 71.5697 18.1433 71.5697 17.9898V13.7098H68.9734V17.0046L58.7105 27.2661C58.5945 27.3941 58.369 27.8419 58.369 27.9891V32.0387H61.0362V28.6672L61.0427 28.6736Z" fill="white"/>
</g>
<defs>
<clipPath id="clip0_397_352">
<rect width="114" height="90" fill="white"/>
</clipPath>
</defs>
</svg>
